<?xml version="1.0" encoding="UTF-8"?>
<svg width="1000px" height="1000px" viewBox="0 0 1000 1000" version="1.1" xmlns="http://www.w3.org/2000/svg" xmlns:xlink="http://www.w3.org/1999/xlink">
    <!-- Generator: Sketch 49.3 (51167) - http://www.bohemiancoding.com/sketch -->
    <title>квадрат</title>
    <desc>Created with Sketch.</desc>
    <defs></defs>
    <g id="квадрат" stroke="none" stroke-width="1" fill="none" fill-rule="evenodd">
        <circle id="Oval" fill="#394A27" cx="500" cy="500" r="448"></circle>
        <path d="M500,874 C293.445504,874 126,706.554496 126,500 C126,293.445504 293.445504,126 500,126 C706.554496,126 874,293.445504 874,500 C874,706.554496 706.554496,874 500,874 Z M165.144,548.536 C163.90666,548.536 162.089345,548.265336 159.692,547.724 C157.294655,547.182664 155.47734,546.912 154.24,546.912 C150.527981,546.912 147.473345,548.342652 145.076,551.204 C142.678655,554.065348 141.48,557.738644 141.48,562.224 C141.48,567.328026 143.026651,571.426651 146.12,574.52 C149.213349,577.613349 153.234642,579.16 158.184,579.16 C160.968014,579.16 166.922621,578.696005 176.048,577.768 C183.626705,576.994663 190.895965,576.608 197.856,576.608 C202.341356,576.608 206.439981,576.839998 210.152,577.304 L224.768,579.16 C225.232002,579.314667 225.927995,579.392 226.856,579.392 C231.496023,579.392 235.323985,577.768016 238.34,574.52 C241.356015,571.271984 242.864,567.173358 242.864,562.224 C242.864,557.893312 241.665345,554.258681 239.268,551.32 C236.870655,548.381319 233.893351,546.912 230.336,546.912 C229.09866,546.912 227.242679,547.182664 224.768,547.724 C222.293321,548.265336 220.43734,548.536 219.2,548.536 C215.023979,548.536 212.936,543.277386 212.936,532.76 L212.936,468.496 C212.936,458.133282 215.023979,452.952 219.2,452.952 C220.43734,452.952 222.293321,453.222664 224.768,453.764 C227.242679,454.305336 229.09866,454.576 230.336,454.576 C233.893351,454.576 236.870655,453.106681 239.268,450.168 C241.665345,447.229319 242.864,443.594688 242.864,439.264 C242.864,427.973277 237.218723,422.328 225.928,422.328 C223.298654,422.328 217.924041,422.714663 209.804,423.488 C201.683959,424.261337 195.458688,424.648 191.128,424.648 C185.71464,424.648 180.146695,424.33867 174.424,423.72 C165.917291,422.791995 160.504012,422.328 158.184,422.328 C153.079974,422.328 149.020015,423.835985 146.004,426.852 C142.987985,429.868015 141.48,434.005307 141.48,439.264 C141.48,443.594688 142.678655,447.229319 145.076,450.168 C147.473345,453.106681 150.450649,454.576 154.008,454.576 C155.400007,454.576 157.294655,454.305336 159.692,453.764 C162.089345,453.222664 163.90666,452.952 165.144,452.952 C168.237349,452.952 170.170663,454.962647 170.944,458.984 C171.253335,460.376007 171.408,463.546642 171.408,468.496 L171.408,532.76 C171.408,537.709358 171.253335,540.957326 170.944,542.504 C170.170663,546.525353 168.237349,548.536 165.144,548.536 Z M322.904,498.192 C322.904,502.522688 324.527984,506.04132 327.776,508.748 C331.024016,511.45468 335.277307,512.808 340.536,512.808 C346.877365,512.808 352.058647,510.913352 356.08,507.124 C360.101353,503.334648 362.112,498.346698 362.112,492.16 C362.112,482.261284 357.665378,474.102699 348.772,467.684 C339.878622,461.265301 328.626735,458.056 315.016,458.056 C296.146572,458.056 281.144056,463.623944 270.008,474.76 C258.871944,485.896056 253.304,500.975905 253.304,520 C253.304,538.869428 258.717279,553.910611 269.544,565.124 C280.370721,576.337389 294.909242,581.944 313.16,581.944 C327.389404,581.944 339.607949,578.077372 349.816,570.344 C360.024051,562.610628 365.128,553.485386 365.128,542.968 C365.128,538.018642 363.504016,533.958683 360.256,530.788 C357.007984,527.617317 352.754693,526.032 347.496,526.032 C342.855977,526.032 339.453344,526.959991 337.288,528.816 C335.741326,530.208007 333.885344,533.455974 331.72,538.56 C328.162649,546.757374 322.594705,550.856 315.016,550.856 C307.591963,550.856 301.637356,547.917363 297.152,542.04 C292.666644,536.162637 290.424,528.352049 290.424,518.608 C290.424,509.173286 292.550645,501.633362 296.804,495.988 C301.057355,490.342638 306.586633,487.52 313.392,487.52 C317.722688,487.52 321.666649,488.757321 325.224,491.232 C323.677326,493.552012 322.904,495.871988 322.904,498.192 Z M435.888,581.944 C454.293425,581.944 468.638615,576.376056 478.924,565.24 C489.209385,554.103944 494.352,538.637432 494.352,518.84 C494.352,499.970572 489.05472,485.122721 478.46,474.296 C467.86528,463.469279 453.365425,458.056 434.96,458.056 C416.24524,458.056 401.706718,463.507945 391.344,474.412 C380.981282,485.316055 375.8,500.511903 375.8,520 C375.8,539.642765 381.019948,554.877279 391.46,565.704 C401.900052,576.530721 416.709237,581.944 435.888,581.944 Z M434.96,486.592 C449.653407,486.592 457,497.727889 457,520 C457,542.272111 449.808072,553.408 435.424,553.408 C428.309298,553.408 422.78002,550.469363 418.836,544.592 C414.89198,538.714637 412.92,530.517386 412.92,520 C412.92,509.637282 414.89198,501.478696 418.836,495.524 C422.78002,489.569304 428.154633,486.592 434.96,486.592 Z M554.904,467.8 C554.904,463.469312 552.816021,461.304 548.64,461.304 C548.175998,461.304 545.701356,461.61333 541.216,462.232 C536.730644,462.85067 533.560009,463.16 531.704,463.16 C530.002658,463.16 527.992012,462.928002 525.672,462.464 C521.650647,461.690663 519.02134,461.304 517.784,461.304 C513.607979,461.304 510.244013,462.773319 507.692,465.712 C505.139987,468.650681 503.864,472.439977 503.864,477.08 C503.864,485.586709 507.575963,489.84 515,489.84 C515.928005,489.84 517.281324,489.569336 519.06,489.028 C520.838676,488.486664 522.03733,488.216 522.656,488.216 C525.285346,488.216 526.6,492.623956 526.6,501.44 L526.6,539.024 C526.6,547.685377 525.285346,552.016 522.656,552.016 C521.882663,552.016 520.722674,551.745336 519.176,551.204 C517.629326,550.662664 516.23734,550.392 515,550.392 C507.575963,550.392 503.864,554.722623 503.864,563.384 C503.864,573.746718 508.735951,578.928 518.48,578.928 C521.264014,578.928 525.401306,578.61867 530.892,578 C536.382694,577.38133 540.519986,577.072 543.304,577.072 C546.088014,577.072 550.341305,577.458663 556.064,578.232 C559.466684,578.696002 562.327988,578.928 564.648,578.928 C572.845374,578.928 576.944,574.056049 576.944,564.312 C576.944,556.733295 574.160028,552.557337 568.592,551.784 C565.653319,551.319998 563.87467,550.353341 563.256,548.884 C562.63733,547.414659 562.328,543.200035 562.328,536.24 L562.328,512.112 C562.328,505.4613 564.377313,499.970688 568.476,495.64 C572.574687,491.309312 577.794635,489.144 584.136,489.144 C589.704028,489.144 593.647988,490.961315 595.968,494.596 C598.288012,498.230685 599.448,504.533288 599.448,513.504 L599.448,545.984 C599.448,549.541351 597.360021,551.474665 593.184,551.784 C586.842635,552.248002 583.672,556.578626 583.672,564.776 C583.672,574.210714 588.234621,578.928 597.36,578.928 C600.144014,578.928 603.701312,578.61867 608.032,578 C612.362688,577.38133 616.461314,577.072 620.328,577.072 C622.802679,577.072 626.514642,577.38133 631.464,578 C636.413358,578.61867 640.125321,578.928 642.6,578.928 C651.880046,578.928 656.52,573.592053 656.52,562.92 C656.52,554.877293 653.117367,550.856 646.312,550.856 C644.765326,550.856 643.605337,551.010665 642.832,551.32 C641.285326,551.784002 640.125337,552.016 639.352,552.016 C636.258651,552.016 634.712,548.072039 634.712,540.184 L634.712,505.384 C634.712,492.0826 632.933351,482.338698 629.376,476.152 C622.7253,464.08794 611.357414,458.056 595.272,458.056 C580.269258,458.056 566.813393,465.01593 554.904,478.936 L554.904,467.8 Z M712.664,461.304 C712.199998,461.304 709.880021,461.61333 705.704,462.232 C701.527979,462.85067 698.125346,463.16 695.496,463.16 C692.247984,463.16 687.91736,462.773337 682.504,462 C679.255984,461.535998 676.781342,461.304 675.08,461.304 C670.749312,461.304 667.269346,462.734652 664.64,465.596 C662.010654,468.457348 660.696,472.207977 660.696,476.848 C660.696,485.509377 664.407963,489.84 671.832,489.84 C672.760005,489.84 673.997326,489.685335 675.544,489.376 C677.864012,488.602663 679.255998,488.216 679.72,488.216 C682.349346,488.216 683.664,492.623956 683.664,501.44 L683.664,539.024 C683.664,547.685377 682.272014,552.016 679.488,552.016 C679.023998,552.016 678.48267,551.938667 677.864,551.784 L671.832,550.392 C664.407963,550.392 660.696,554.799956 660.696,563.616 C660.696,568.101356 662.010654,571.774652 664.64,574.636 C667.269346,577.497348 670.671979,578.928 674.848,578.928 C677.477346,578.928 681.49864,578.61867 686.912,578 C692.32536,577.38133 696.423986,577.072 699.208,577.072 C704.776028,577.072 709.725312,577.303998 714.056,577.768 C721.170702,578.541337 725.501326,578.928 727.048,578.928 C736.173379,578.928 740.736,573.592053 740.736,562.92 C740.736,554.877293 737.488032,550.856 730.992,550.856 C729.909328,550.856 728.556008,551.049331 726.932,551.436 C725.307992,551.822669 724.18667,552.016 723.568,552.016 C720.629319,552.016 719.16,548.072039 719.16,540.184 L719.16,470.352 C719.16,464.31997 716.994688,461.304 712.664,461.304 Z M699.44,452.488 C705.317363,452.488 710.305313,450.438687 714.404,446.34 C718.502687,442.241313 720.552,437.253363 720.552,431.376 C720.552,425.498637 718.502687,420.510687 714.404,416.412 C710.305313,412.313313 705.317363,410.264 699.44,410.264 C693.562637,410.264 688.574687,412.313313 684.476,416.412 C680.377313,420.510687 678.328,425.498637 678.328,431.376 C678.328,437.098695 680.415979,442.047979 684.592,446.224 C688.768021,450.400021 693.717305,452.488 699.44,452.488 Z M817.064,498.192 C817.064,502.522688 818.687984,506.04132 821.936,508.748 C825.184016,511.45468 829.437307,512.808 834.696,512.808 C841.037365,512.808 846.218647,510.913352 850.24,507.124 C854.261353,503.334648 856.272,498.346698 856.272,492.16 C856.272,482.261284 851.825378,474.102699 842.932,467.684 C834.038622,461.265301 822.786735,458.056 809.176,458.056 C790.306572,458.056 775.304056,463.623944 764.168,474.76 C753.031944,485.896056 747.464,500.975905 747.464,520 C747.464,538.869428 752.877279,553.910611 763.704,565.124 C774.530721,576.337389 789.069242,581.944 807.32,581.944 C821.549404,581.944 833.767949,578.077372 843.976,570.344 C854.184051,562.610628 859.288,553.485386 859.288,542.968 C859.288,538.018642 857.664016,533.958683 854.416,530.788 C851.167984,527.617317 846.914693,526.032 841.656,526.032 C837.015977,526.032 833.613344,526.959991 831.448,528.816 C829.901326,530.208007 828.045344,533.455974 825.88,538.56 C822.322649,546.757374 816.754705,550.856 809.176,550.856 C801.751963,550.856 795.797356,547.917363 791.312,542.04 C786.826644,536.162637 784.584,528.352049 784.584,518.608 C784.584,509.173286 786.710645,501.633362 790.964,495.988 C795.217355,490.342638 800.746633,487.52 807.552,487.52 C811.882688,487.52 815.826649,488.757321 819.384,491.232 C817.837326,493.552012 817.064,495.871988 817.064,498.192 Z" id="Combined-Shape" fill="#7ED321"></path>
    </g>
</svg>